<svg xmlns="http://www.w3.org/2000/svg" viewBox="0 0 600 440" preserveAspectRatio="xMidYMid slice" role="img" aria-label="Small Business Loans">
  <defs>
    <linearGradient id="g" x1="0" y1="0" x2="1" y2="1">
      <stop offset="0%" stop-color="#0F1A2E"/>
      <stop offset="100%" stop-color="#1F2C47"/>
    </linearGradient>
  </defs>
  <rect width="600" height="440" fill="url(#g)"/>
  <!-- soft decorative blobs -->
  <circle cx="510" cy="80" r="120" fill="#ffffff" fill-opacity="0.08"/>
  <circle cx="80"  cy="380" r="160" fill="#ffffff" fill-opacity="0.06"/>
  <circle cx="500" cy="370" r="60"  fill="#ffffff" fill-opacity="0.10"/>
  <!-- icon plate -->
  <g transform="translate(300 220)">
    <circle r="120" fill="#ffffff" fill-opacity="0.16"/>
    <circle r="92"  fill="#ffffff" fill-opacity="0.95"/>
    <g transform="translate(-44 -44)" stroke="#E5B84C" stroke-width="6" stroke-linecap="round" stroke-linejoin="round" fill="none">

      <path d="M8 26 L80 26 L78 38 L10 38 Z" fill="#FFFBEF"/>
      <path d="M14 38 L14 80 L74 80 L74 38"/>
      <rect x="36" y="50" width="16" height="22" rx="2"/>
      <path d="M22 50 L32 50 L32 62 L22 62 Z"/>
      <path d="M56 50 L66 50 L66 62 L56 62 Z"/>
      <path d="M14 80 L74 80"/>
      <path d="M8 26 L8 14 L80 14 L80 26"/>

    </g>
  </g>
</svg>
